<?xml version="1.0" encoding="UTF-8"?>
<svg id="Layer_1" data-name="Layer 1" xmlns="http://www.w3.org/2000/svg" xmlns:xlink="http://www.w3.org/1999/xlink" viewBox="0 0 54.03 54.03">
  <defs>
    <style>
      .cls-1 {
        fill: none;
      }

      .cls-2 {
        clip-path: url(#clippath);
      }

      .cls-3 {
        fill: #22b2dc;
      }
    </style>
    <clipPath id="clippath">
      <rect class="cls-1" y="0" width="54.03" height="54.03"/>
    </clipPath>
  </defs>
  <g class="cls-2">
    <path class="cls-3" d="m27.19,37.11c-.61,0-1.19-.24-1.63-.67l-11.84-11.84c-.79-.79-.79-2.08,0-2.87.79-.79,2.08-.79,2.87,0l10.6,10.6,23.38-23.38c.79-.79,2.08-.79,2.87,0s.79,2.08,0,2.87l-24.62,24.63c-.43.43-1.01.67-1.62.67"/>
    <path class="cls-3" d="m27.02,54.03C12.12,54.03,0,41.91,0,27.02S12.12,0,27.02,0c5.33,0,10.48,1.55,14.91,4.48.93.62,1.19,1.88.57,2.81-.62.93-1.88,1.19-2.81.57-3.76-2.49-8.14-3.81-12.67-3.81C14.36,4.06,4.06,14.36,4.06,27.02s10.3,22.96,22.96,22.96,22.96-10.3,22.96-22.96c0-1.12.91-2.03,2.03-2.03s2.03.91,2.03,2.03c0,14.9-12.12,27.02-27.02,27.02"/>
  </g>
</svg>